<svg width="119.971" height="72.071" viewBox="0 0 119.971 72.071" xmlns="http://www.w3.org/2000/svg"><g id="svgGroup" stroke-linecap="round" fill-rule="evenodd" font-size="9pt" stroke="#000" stroke-width="0.25mm" fill="#000" style="stroke:#000;stroke-width:0.25mm;fill:#000"><path d="M 52.93 0 L 52.93 71.094 L 46.924 71.094 L 6.055 10.254 L 6.055 71.094 L 0 71.094 L 0 0 L 6.055 0 L 46.973 60.889 L 46.973 0 L 52.93 0 Z M 113.916 0 L 119.971 0 L 119.971 48.535 A 28.13 28.13 0 0 1 119.202 55.053 A 22.158 22.158 0 0 1 116.797 61.035 Q 113.672 66.357 107.983 69.214 A 26.683 26.683 0 0 1 99.579 71.763 A 34.193 34.193 0 0 1 94.922 72.07 A 33.437 33.437 0 0 1 87.277 71.244 A 22.9 22.9 0 0 1 76.929 65.942 A 20.756 20.756 0 0 1 70.527 54.476 A 30.18 30.18 0 0 1 69.922 48.975 L 69.922 0 L 75.879 0 L 75.879 48.096 A 25.24 25.24 0 0 0 76.481 53.782 Q 77.42 57.842 79.82 60.753 A 15.47 15.47 0 0 0 81.006 62.036 A 17.112 17.112 0 0 0 89.312 66.407 A 25.404 25.404 0 0 0 94.922 66.992 A 25.026 25.026 0 0 0 100.763 66.349 A 16.92 16.92 0 0 0 108.813 62.012 A 16.351 16.351 0 0 0 113.285 53.91 Q 113.911 51.289 113.916 48.193 A 30.973 30.973 0 0 0 113.916 48.145 L 113.916 0 Z" vector-effect="non-scaling-stroke"/></g></svg>